<?xml version="1.0" standalone="no"?>
<!DOCTYPE svg PUBLIC "-//W3C//DTD SVG 20010904//EN"
 "http://www.w3.org/TR/2001/REC-SVG-20010904/DTD/svg10.dtd">
<svg version="1.0" xmlns="http://www.w3.org/2000/svg"
 width="177.000000pt" height="177.000000pt" viewBox="0 0 177.000000 177.000000"
 preserveAspectRatio="xMidYMid meet">
<metadata>
Created by potrace 1.14, written by Peter Selinger 2001-2017
</metadata>
<g transform="translate(0.000000,177.000000) scale(0.100000,-0.100000)"
fill="#000000" stroke="none">
<path d="M0 1760 c0 -7 302 -10 885 -10 583 0 885 3 885 10 0 7 -302 10 -885
10 -583 0 -885 -3 -885 -10z"/>
<path d="M725 1665 c-64 -14 -164 -51 -180 -66 -5 -5 -126 -9 -277 -9 -261 0
-268 0 -268 -20 0 -19 7 -20 231 -20 l231 0 -74 -79 -73 -80 -157 0 c-151 -1
-158 -2 -158 -21 0 -19 7 -20 146 -20 135 0 146 -1 139 -17 -4 -10 -18 -45
-30 -78 l-23 -60 -116 -3 c-108 -2 -116 -4 -116 -22 0 -19 7 -20 111 -20 l111
0 -5 -32 c-3 -18 -9 -54 -13 -80 l-6 -48 -99 0 c-92 0 -99 -1 -99 -20 0 -19 7
-20 100 -20 l100 0 0 -34 c0 -18 3 -54 6 -80 l7 -46 -107 0 c-99 0 -106 -1
-106 -20 0 -19 7 -20 108 -20 l107 0 25 -80 26 -80 -133 0 c-126 0 -133 -1
-133 -20 0 -19 7 -20 145 -20 140 0 145 -1 156 -22 6 -13 31 -49 56 -80 l44
-58 -200 0 c-194 0 -201 -1 -201 -20 0 -19 7 -20 224 -20 l223 0 65 -43 c216
-145 574 -142 778 8 l48 35 22 -65 22 -65 79 0 79 0 0 65 0 65 115 0 c108 0
115 1 115 20 0 19 -7 20 -115 20 l-115 0 0 80 0 80 115 0 c108 0 115 1 115 20
0 19 -7 20 -115 20 l-115 0 0 80 0 80 115 0 c108 0 115 1 115 20 0 19 -7 20
-115 20 l-115 0 0 80 0 80 115 0 c108 0 115 1 115 20 0 20 -7 20 -671 20
l-672 0 6 63 c3 34 9 70 12 80 7 16 50 17 666 17 652 0 659 0 659 20 0 20 -7
20 -655 20 l-655 0 26 53 c15 28 35 64 46 80 l19 27 348 0 347 0 17 -35 c9
-19 20 -53 23 -75 l7 -40 113 0 114 0 -6 33 c-3 17 -10 48 -15 67 -5 19 -9 38
-9 43 0 4 63 7 140 7 133 0 140 1 140 20 0 19 -7 20 -154 20 -146 0 -155 1
-161 20 -4 11 -31 47 -62 80 l-55 60 216 0 c209 0 216 1 216 20 0 19 -7 20
-250 20 -248 0 -251 0 -300 25 -118 60 -347 83 -495 50z m297 -186 c57 -12
152 -54 169 -76 10 -11 -41 -13 -292 -13 -330 1 -326 0 -226 51 88 46 235 62
349 38z m-62 -609 l0 -80 -259 0 c-295 0 -271 -8 -271 96 l0 64 265 0 265 0 0
-80z m370 -200 l0 -80 -411 0 -410 0 -24 53 c-13 28 -27 64 -30 80 l-7 27 441
0 441 0 0 -80z m-41 -137 c-27 -32 -133 -94 -197 -113 -83 -26 -211 -35 -287
-21 -80 15 -171 61 -220 110 l-39 41 378 0 c353 0 378 -1 365 -17z"/>
<path d="M0 170 c0 -20 7 -20 885 -20 878 0 885 0 885 20 0 20 -7 20 -885 20
-878 0 -885 0 -885 -20z"/>
</g>
</svg>
