<?xml version="1.0" encoding="UTF-8" standalone="no"?>
<svg
   xmlns:dc="http://purl.org/dc/elements/1.1/"
   xmlns:cc="http://creativecommons.org/ns#"
   xmlns:rdf="http://www.w3.org/1999/02/22-rdf-syntax-ns#"
   xmlns:svg="http://www.w3.org/2000/svg"
   xmlns="http://www.w3.org/2000/svg"
   xmlns:sodipodi="http://sodipodi.sourceforge.net/DTD/sodipodi-0.dtd"
   xmlns:inkscape="http://www.inkscape.org/namespaces/inkscape"
   width="260.95883pt"
   height="391.62766pt"
   viewBox="0 0 260.95883 391.62766"
   version="1.1"
   id="svg4842"
   inkscape:version="0.91 r13725"
   sodipodi:docname="Innogy_Logo.svg">
  <metadata
     id="metadata4878">
    <rdf:RDF>
      <cc:Work
         rdf:about="">
        <dc:format>image/svg+xml</dc:format>
        <dc:type
           rdf:resource="http://purl.org/dc/dcmitype/StillImage" />
        <dc:title></dc:title>
      </cc:Work>
    </rdf:RDF>
  </metadata>
  <defs
     id="defs4876" />
  <sodipodi:namedview
     pagecolor="#ffffff"
     bordercolor="#666666"
     borderopacity="1"
     objecttolerance="10"
     gridtolerance="10"
     guidetolerance="10"
     inkscape:pageopacity="0"
     inkscape:pageshadow="2"
     inkscape:window-width="1366"
     inkscape:window-height="705"
     id="namedview4874"
     showgrid="false"
     inkscape:zoom="0.44166667"
     inkscape:cx="218.01268"
     inkscape:cy="156.29426"
     inkscape:window-x="-8"
     inkscape:window-y="-8"
     inkscape:window-maximized="1"
     inkscape:current-layer="svg4842"
     fit-margin-top="0"
     fit-margin-left="0"
     fit-margin-right="0"
     fit-margin-bottom="0" />
  <path
     d="M 130.72508,3.424764e-6 C 128.21369,-0.00111658 125.7007,0.26937782 123.25945,0.77187782 107.74945,4.1818778 96.188827,20.091878 98.018827,35.921878 c 1.3,14.76 13.709373,27.670625 28.459373,29.340625 10.77,1.37 22.32063,-2.920312 28.99063,-11.620312 7.93,-8.8 9.87062,-22.179376 5.39062,-33.059376 -3.52,-7.9 -9.72125,-14.9512492 -17.93125,-18.1312492 C 139.0907,0.75781542 134.91072,0.00185862 130.72508,3.424764e-6 Z M 129.84539,8.3375034 c 6.38108,-0.1745904 12.81531,2.3799996 17.38281,6.8249996 10.03,8.56 10.09032,25.869688 0.57032,34.829688 -5.56,5.25 -13.52938,8.250312 -21.15938,6.870312 -7.25,-1.38 -14.12031,-5.849688 -17.57031,-12.479688 -4.26,-8.23 -3.67969,-18.921249 1.92031,-26.381249 4.02,-4.93 9.80969,-8.4687506 16.12969,-9.4187506 0.90375,-0.1387496 1.81498,-0.2203712 2.72656,-0.245312 z"
     id="path4846"
     inkscape:connector-curvature="0" />
  <path
     d="m 92.258827,84.562191 c 3.52,-4.63 14.757363,-21.37717 19.537363,-24.90717 4.22722,2.719796 1.62686,1.478446 4.22722,2.719796 -1.87,2.73 -11.03458,17.347374 -12.79458,20.157374 -1.61916,2.03842 -1.7704,2.03049 -2.97,3.95 -0.720003,2.95 -1.140003,5.96 -1.360003,8.99 6.880003,-0.14 13.330003,-2.84 19.650003,-5.29 6.5,-3.21 13.27,-5.82 19.86,-8.82 8.48,-3.44 17.04,-8.03 26.51,-7.12 2.01301,0.3108 3.66742,0.74965 4.68305,1.74859 1.0576,1.04022 1.83342,2.76395 2.0873,4.32139 0.12,3.48 0.0797,7.21002 -1.42035,10.49002 -1.39,3.15 -3.01698,5.94094 -4.77075,9.06679 -1.24116,1.484849 -1.40615,1.659239 -2.56925,2.973209 -5.4,5.47 -10.24,11.54 -16.23,16.42 -2.64,-1.6 -5.46,-2.88 -8.35,-3.92 2.58,-5.42 7.98,-8.61 11.82,-13.04 4.74,-5.519999 9.9,-11.089999 12.04,-18.219999 -11.53,0.96 -21.5,7.18 -31.99,11.41 -10.65,4.799999 -21.8,10.099999 -33.820003,8.779999 -2.46,-1.59 -4.62,-3.57 -6.27,-5.979999 -0.1,-3.9 -0.1298,-9.7811 1.1696,-12.48065 2.96165,-3.97104 0.8804,-0.67935 0.9604,-1.24935 z"
     id="path4850"
     inkscape:connector-curvature="0"
     style="fill:#f9e83d"
     sodipodi:nodetypes="cccccccccsccccccccccccc" />
  <path
     d="m 131.0407,114.32813 c -7.37859,-0.0506 -14.75938,2.71624 -20.27187,7.64375 -5.33,5.53 -8.89063,13.10031 -8.74063,20.87031 0.04,35.66 0.021,71.31969 0.011,106.97969 0.19,11.68 8.28032,22.8 19.57032,26.15 10.06,3.64 21.73937,0.40093 29.35937,-6.83907 4.87,-5.6 8.22031,-12.84031 8.02031,-20.37031 0.01,-33.65 -6.2e-4,-67.31093 0.009,-100.96093 1.05,-10.72 -3.01,-22.49907 -12.3,-28.53907 -2.64,-1.6 -5.46,-2.88031 -8.35,-3.92031 -2.39,-0.6675 -4.84828,-0.99718 -7.30781,-1.01406 z m -0.90469,8.11875 c 7.89975,-0.13563 15.71251,4.78906 18.86251,12.09531 2.49,4.35 1.94093,9.45062 1.96093,14.24062 -0.01,33.34 -0.01,66.67 0,100 0.09,8.06 -5.24093,15.67907 -12.56093,18.88907 -9.08,4.19 -20.62969,0.0103 -25.47969,-8.57969 -1.77,-3.12 -2.76063,-6.68969 -2.69063,-10.27969 0,-35.34 -0.009,-70.67093 0.011,-106.01093 -0.23,-9.5 7.30032,-18.18969 16.52032,-19.97969 1.11875,-0.23375 2.24803,-0.35563 3.37656,-0.375 z"
     id="path4852"
     inkscape:connector-curvature="0" />
  <path
     d="m 1.3988271,316.63219 c 2.88,-1.62 7.12,-1.88 8.7699999,1.54 1.75,2.29 0.22,4.93 -1.3399999,6.81 -1.1,0.39 -2.19,0.8 -3.28,1.22 -1.94,-0.74 -4.38,-1.31 -5.17000001,-3.5 -1.02,-2.06 0.26,-4.18 1.02000001,-6.07 z"
     id="path4856"
     inkscape:connector-curvature="0"
     style="fill:#010305" />
  <path
     d="m 25.668827,339.28219 c 5.92,-4.57 13.78,-6.33 21.11,-4.95 5.23,0.98 10.11,4.7 11.64,9.91 1.38,4.03 1,8.34 1.07,12.53 -0.07,6.13 0.2,12.27 -0.2,18.4 -2.36,1.33 -4.95,1.22 -7.31,-0.02 -0.52,-8.11 0.22,-16.27 -0.41,-24.37 -0.28,-4.05 -2.84,-7.92 -6.86,-9.05 -6.13,-1.74 -13.13,0.24 -17.7,4.63 -2.05,1.92 -1.61,4.91 -1.63,7.44 -0.04,7.12 0.2,14.25 -0.14,21.37 -2.37,1.27 -4.95,1.34 -7.28,-0.06 -0.06,-0.83 -0.19,-2.47 -0.26,-3.29 0.05,-2.02 0.07,-4.03 0.09,-6.03 0.23,-10.24 -0.49,-20.53 0.23,-30.73 1.98,0.02 3.95,0.1 5.92,0.25 0.63,1.29 1.21,2.61 1.73,3.97 z"
     id="path4858"
     inkscape:connector-curvature="0"
     style="fill:#010305" />
  <path
     d="m 74.708827,339.29219 c 5.81,-4.78 13.8,-6.17 21.09,-5 4.630003,0.88 9.050003,3.73 10.950003,8.17 2.18,5.5 1.64,11.52 1.7,17.31 -0.07,5.07 0.22,10.14 -0.23,15.2 -0.63,0.36 -1.9,1.1 -2.53,1.47 -1.75,-0.28 -4.69,-0.42 -4.75,-2.78 -0.2,-6.97 0.08,-13.95 -0.08,-20.92 -0.09,-3.82 -1.390003,-8.1 -4.970003,-10.03 -5.59,-3 -12.54,-1.51 -17.68,1.74 -1.69,1.28 -3.68,2.92 -3.69,5.23 -0.18,8.49 0.22,16.99 -0.21,25.47 -2.37,1.31 -4.95,1.36 -7.31,-0.01 -0.43,-13.29 -0.21,-26.62 -0.12,-39.92 3.28,-0.68 7.65,-0.16 7.83,4.07 z"
     id="path4860"
     inkscape:connector-curvature="0"
     style="fill:#010305" />
  <path
     d="m 138.11883,333.89844 c -2.67159,-0.0535 -5.35187,0.29031 -7.90938,1.01406 -7.32,1.96 -13.65125,7.95 -15.28125,15.45 -1.72,6.48 -0.14875,13.80938 4.23125,18.90938 7.75,9.46 22.82,10.31093 32.7,3.81093 5.19,-4.13 8.94938,-10.53 8.70938,-17.3 0.3,-7.25 -3.69063,-14.39031 -9.79063,-18.22031 -3.78124,-2.38125 -8.20673,-3.57481 -12.65937,-3.66406 z m -0.59375,6.7 c 4.25455,0.0172 8.56875,1.67188 11.54375,4.73437 4.83,5.26 5.32969,14 0.67969,19.55 -6.64,8.18 -21.58,6.76876 -26.35,-2.73124 -1.64,-4.3 -1.56032,-9.21 0.17968,-13.45 2.22,-4.66 7.21125,-7.26938 12.13125,-8.00938 0.60125,-0.065 1.20783,-0.0962 1.81563,-0.0937 z"
     id="path4862"
     inkscape:connector-curvature="0" />
  <path
     d="m 187.22352,333.91094 c -8.36221,0.17686 -16.72813,4.85 -19.48438,13.03125 -2.93,6.91 -1.77062,15.20969 2.60938,21.22969 7.17,8.98 22.11,10.07062 30.95,3.04062 -0.34,3.69 -1.05938,7.78938 -3.90938,10.40938 -7.21,5.34 -17.56969,3 -23.77969,-2.85 -0.58,0.19 -1.73093,0.56 -2.31093,0.75 -1.19,1.84 -2.37032,4.26093 -0.87032,6.31093 2.99,3.4 7.65032,4.91907 12.02032,5.53907 6.05,0.24 12.74968,0.86062 17.97968,-2.85938 6.45,-4.2 8.67094,-12.41093 8.56094,-19.71093 -0.06,-11.17 0.14938,-22.33938 -0.0906,-33.50938 -1.4,-0.08 -2.81,-0.28938 -4.2,-0.10938 -1.86,0.23 -2.54907,2.22969 -3.63907,3.47969 -3.80249,-3.345 -8.81861,-4.85767 -13.83593,-4.75156 z m -0.65469,6.57187 c 5.8,-0.07 11.98062,2.12969 14.89062,7.47969 -0.11,4.59 0.19875,9.20907 -0.13125,13.78907 -1.22,3.82 -5.06906,5.96031 -8.78906,6.72031 -4.95,1.31 -10.56094,0.0606 -14.46094,-3.25938 -6.05,-5.65 -5.35937,-16.75969 1.34063,-21.62969 2.1,-1.58 4.69,-2.26 7.15,-3.1 z"
     id="path4864"
     inkscape:connector-curvature="0" />
  <path
     d="m 2.2588271,335.44219 c 1.79,-0.29 3.59,-0.42 5.39,-0.4 0.38,0.37 1.13,1.11 1.51,1.49 1.2599999,7.65 0.35,15.46 0.62,23.19 -0.16,5.1 0.5499999,10.31 -0.79,15.31 -1.85,0.6 -4.23,2.18 -5.92,0.45 -1.26,-0.8 -2.04,-2.13 -1.85,-3.64 -0.05,-10.36 0.03,-20.73 -0.03,-31.09 -0.15,-1.85 0.5,-3.59 1.07,-5.31 z"
     id="path4866"
     inkscape:connector-curvature="0"
     style="fill:#010305" />
  <path
     d="m 252.51883,336.65219 c 2.24,-1.29 4.77,-1.61 7.31,-1.33 0.28,0.6 0.84,1.79 1.13,2.39 -5.63,11.8 -11.72,23.38 -17.15,35.27 -3.68,6.79 -6.92,15.12 -14.72,18.09 -4.73,1.1 -11.37,0.96 -13.78,-4.12 -0.34,-2.54 1.7,-4.37 3.79,-5.32 2.61,1.83 6.03,3.74 9.06,1.59 2.61,-2.03 5.42,-5.06 5.52,-8.46 -5.37,-12.27 -11.75,-24.08 -17.52,-36.17 -1.68,-3.02 2.3,-3.88 4.5,-3.31 4.95,0.3 5.92,5.89 7.9,9.43 3.01,7.61 7.04,14.76 10.14,22.34 4.87,-10.02 8.88,-20.42 13.82,-30.4 z"
     id="path4868"
     inkscape:connector-curvature="0"
     style="fill:#010305" />
</svg>
