<svg xmlns="http://www.w3.org/2000/svg" width="1153.002" height="235" viewBox="0 0 1153.002 235">
  <g id="Geoline_logo_grey" data-name="Geoline logo grey" transform="translate(-267.998 -69)">
    <path id="Path_1" data-name="Path 1" d="M0,0,578.988.5,1149,1" transform="translate(268 81)" fill="none" stroke="#696969" stroke-width="4"/>
    <path id="Path_1-2" data-name="Path 1" d="M0,0,578.988.5,1149,1" transform="translate(268 101)" fill="none" stroke="#696969" stroke-width="4"/>
    <path id="Path_1-3" data-name="Path 1" d="M0,0,578.988.5,1149,1" transform="translate(268 121)" fill="none" stroke="#696969" stroke-width="4"/>
    <path id="Path_1-4" data-name="Path 1" d="M0,0,578.988.5,1149,1" transform="translate(268 141)" fill="none" stroke="#696969" stroke-width="4"/>
    <path id="Path_1-5" data-name="Path 1" d="M0,0,578.988.5,1149,1" transform="translate(268 161)" fill="none" stroke="#696969" stroke-width="4"/>
    <path id="Path_1-6" data-name="Path 1" d="M0,0,578.988.5,1149,1" transform="translate(268 181)" fill="none" stroke="#696969" stroke-width="4"/>
    <path id="Path_1-7" data-name="Path 1" d="M0,0,578.988.5,1149,1" transform="translate(268 201)" fill="none" stroke="#696969" stroke-width="4"/>
    <path id="Path_1-8" data-name="Path 1" d="M0,0,578.988.5,1149,1" transform="translate(268 221)" fill="none" stroke="#696969" stroke-width="4"/>
    <path id="Path_1-9" data-name="Path 1" d="M0,0,578.988.5,1149,1" transform="translate(268 241)" fill="none" stroke="#696969" stroke-width="4"/>
    <path id="Path_1-10" data-name="Path 1" d="M0,0,578.988.5,1149,1" transform="translate(268 261)" fill="none" stroke="#696969" stroke-width="4"/>
    <path id="Path_1-11" data-name="Path 1" d="M0,0,578.988.5h437.924" transform="translate(268 281)" fill="none" stroke="#696969" stroke-width="4"/>
    <path id="Path_1-12" data-name="Path 1" d="M0,0,578.988.5,1149,1" transform="translate(268 301)" fill="none" stroke="#696969" stroke-width="4"/>
    <g id="Geoline_CZ" data-name="Geoline CZ" transform="translate(446 47)">
      <g id="Geo_L_ine_CZ" data-name="Geo,L,ine CZ" transform="translate(-159.5 26)">
        <text id="ine_CZ" data-name="ine CZ" transform="translate(505.5)" fill="#ccc" stroke="#000" stroke-width="4" font-size="196" font-family="MicrosoftSansSerif, Microsoft Sans Serif" letter-spacing="0.035em"><tspan x="0" y="181">ine CZ</tspan></text>
        <text id="L" transform="translate(390)" fill="#556bee" stroke="#000" stroke-width="4" font-size="196" font-family="MicrosoftSansSerif, Microsoft Sans Serif" letter-spacing="0.035em"><tspan x="0" y="181">L</tspan></text>
        <text id="Geo" fill="#ccc" stroke="#000" stroke-width="4" font-size="196" font-family="MicrosoftSansSerif, Microsoft Sans Serif" letter-spacing="0.035em"><tspan x="0" y="181">Geo</tspan></text>
      </g>
    </g>
    <path id="Path_2" data-name="Path 2" d="M20.933-22.277,12.514,0H8.986L.567-22.277H4.85L10.75-4.85l5.9-17.427ZM27.346,0h-4.3V-4.3h4.3ZM49.978-22.781a9.919,9.919,0,0,1,7.611,3.044q2.845,3.044,2.845,8.608,0,5.543-2.845,8.6A9.9,9.9,0,0,1,49.978.525a9.876,9.876,0,0,1-7.59-3.055q-2.845-3.055-2.845-8.6,0-5.564,2.845-8.608A9.894,9.894,0,0,1,49.978-22.781Zm0,20.2a5.663,5.663,0,0,0,4.6-2.152q1.764-2.152,1.764-6.393,0-4.262-1.764-6.414a5.663,5.663,0,0,0-4.6-2.152,5.663,5.663,0,0,0-4.6,2.152q-1.764,2.152-1.764,6.414,0,4.241,1.764,6.393A5.663,5.663,0,0,0,49.978-2.583ZM67.793,0h-4.3V-4.3h4.3ZM89.354.525q-9.133,0-9.553-7.181h3.968q.042,4.073,5.543,4.073A5.948,5.948,0,0,0,93.06-3.6a3.124,3.124,0,0,0,1.291-2.551,2.183,2.183,0,0,0-1.26-2.131,31.7,31.7,0,0,0-5.2-1.606,19.141,19.141,0,0,1-5.753-2.2q-1.816-1.218-1.816-4.283a5.646,5.646,0,0,1,2.257-4.588,9.348,9.348,0,0,1,6.036-1.816q8.755,0,8.944,6.236H93.616q-.21-3.149-4.724-3.149a6.55,6.55,0,0,0-3.307.756,2.406,2.406,0,0,0-1.312,2.2,2,2,0,0,0,1.008,1.879A25.162,25.162,0,0,0,90.33-13.3a19.535,19.535,0,0,1,6,2.278Q98.3-9.721,98.3-6.53a6.281,6.281,0,0,1-2.425,5.05A9.914,9.914,0,0,1,89.354.525ZM105.824,0h-4.3V-4.3h4.3Z" transform="translate(1308 293)" fill="#ccc" stroke="#000" stroke-width="1.5"/>
  </g>
</svg>
