<?xml version="1.0" encoding="utf-8"?>
<!-- Generator: Adobe Illustrator 16.0.4, SVG Export Plug-In . SVG Version: 6.00 Build 0)  -->
<!DOCTYPE svg PUBLIC "-//W3C//DTD SVG 1.1//EN" "http://www.w3.org/Graphics/SVG/1.1/DTD/svg11.dtd">
<svg version="1.1" id="Vrstva_1" xmlns="http://www.w3.org/2000/svg" xmlns:xlink="http://www.w3.org/1999/xlink" x="0px" y="0px"
	 width="186.42px" height="86px" viewBox="0 0 186.42 86" enable-background="new 0 0 186.42 86" xml:space="preserve">
<g>
	<polygon fill-rule="evenodd" clip-rule="evenodd" fill="#EB212E" points="0,13.547 0,69.313 91.562,86 186.42,72.756 
		186.401,13.348 92.204,0 	"/>
	<polygon fill-rule="evenodd" clip-rule="evenodd" fill="#FFF02A" points="5.902,18.645 5.901,64.39 91.687,80.024 180.517,67.622 
		180.501,18.472 92.219,5.962 	"/>
	<path fill-rule="evenodd" clip-rule="evenodd" d="M10.903,22.012l-0.029,38.35l5.565,1.113L16.387,43.5l62.648-7.714
		c8.649-0.885,9.419-3.396,9.505-6.765L88.455,15.32c-0.228-3.854-3.368-4.196-7.878-3.596L10.903,22.012z"/>
	<path fill-rule="evenodd" clip-rule="evenodd" fill="#FFF02A" d="M16.385,25.072l-0.021,14.161l55.479-6.615
		c4.225-0.428,3.996-2.654,3.939-5.138l0.171-7.536c0.115-1.77-0.885-2.854-3.254-2.483L16.385,25.072z"/>
	<path fill-rule="evenodd" clip-rule="evenodd" d="M31.767,43.151l-0.173,15.74l4.503,0.514l0.123-7.348
		c0.577,0.07,1.153,0.14,1.73,0.21c0.859,0.156,1.651,0.651,1.866,1.588l2.655,6.594l4.196,0.685l-3.339-8.306
		c1.855-0.6,3.197-1.884,3.254-3.34c0-1.855,0-3.711,0-5.566c0.085-2.169-1.542-2.369-3.854-2.141L31.767,43.151z"/>
	<path fill-rule="evenodd" clip-rule="evenodd" d="M112.217,39.559l0.352,25.271l4.718-0.75l-0.064-11.129
		c0.577,0.07,1.552,0.108,2.128,0.178c0.892,0.025,0.9,0.247,1.244,1.129l3.899,8.723l4.098-0.887l-3.831-8.896
		c1.855-0.599,2.935-1.654,2.992-3.11c0-1.855,0.099-4.268,0.099-6.123c0.085-2.17-1.877-3.05-3.919-3.189L112.217,39.559z"/>
	<path fill-rule="evenodd" clip-rule="evenodd" fill="#FFF02A" d="M36.2,44.989v4.581l4.784,0.543
		c1.448,0.192,2.557-0.43,2.512-1.459l0.034-3.122c0.057-0.848-0.6-1.188-1.561-1.12L36.2,44.989z"/>
	<path fill-rule="evenodd" clip-rule="evenodd" fill="#FFF02A" d="M117.207,43.297l-0.033,6.055l4.293,0.412
		c1.448,0.193,2.098-0.691,2.053-1.721l-0.13-3.089c0.057-0.848-0.355-1.001-1.332-1.12L117.207,43.297z"/>
	<path fill-rule="evenodd" clip-rule="evenodd" d="M55.602,44.536v12.956c-0.042,2.107-0.458,4.589,2.879,5.194l7.26,1.439
		c2.837,0.292,4.861-1.23,4.944-3.066l0.25-18.4c0.167-3.087-1.856-3.859-4.193-3.63c-2.065,0.208-4.131,0.417-6.196,0.626
		C57.146,40.093,55.56,41.72,55.602,44.536"/>
	<path fill-rule="evenodd" clip-rule="evenodd" fill="#FFF02A" d="M60.628,44.701l-0.106,12.083
		c-0.033,1.688-0.261,3.197,1.72,3.283l2.461-0.046c1.407,0.018,1.549-0.133,1.616-1.604L66.44,43.89
		c0.107-1.541-0.369-1.36-2.24-1.176l-1.677,0.194C61.344,42.992,60.674,43.351,60.628,44.701"/>
	<path fill-rule="evenodd" clip-rule="evenodd" d="M97.166,46.137l4.953,0.238l0.191-3.953c0.063-1.714-0.636-4-3.239-4.572
		c-2.047-0.445-4.096-0.889-6.143-1.333c-1.73-0.318-3.08-0.445-4.62-0.095c-1.571,0.286-3.143,0.571-4.715,0.857
		c-2.635,0.619-3.747,2.333-3.762,4.429c0.016,6.461-0.284,12.501-0.268,18.963c0.048,2.27,0.268,4.485,4.316,5.802
		c1.842,0.481,1.922,0.534,3.685,0.963c1.963,0.352,4.053,0.428,6.014,0.283c1.734-0.197,4.16-0.832,5.711-1.344
		c1.778-0.571,3.053-1.425,2.974-2.949l-0.095-12.24l-7.573,1.762c-1.778,0.333-1.413,5.048,0.095,4.429l2.524-0.524v4.715
		c0.063,1.318-4.055,1.776-6.467,1.76c-2.556-0.159-4.646-0.839-4.772-2.808V45.661c-0.048-1.667,0.429-4.095,2.143-4l6.191,0.048
		C97.738,42.089,97.261,44.185,97.166,46.137"/>
	<polygon fill-rule="evenodd" clip-rule="evenodd" points="137.503,42.173 137.721,61.103 151.738,60.436 151.503,57.599 
		143.495,57.866 143.361,52.426 148.133,52.426 148.1,50.157 143.214,49.821 143.094,45.284 151.871,46.118 151.871,43.582 	"/>
	<path fill-rule="evenodd" clip-rule="evenodd" d="M175.454,22.545v4.254c-21.062-2.911-43.104-5.955-64.166-8.866
		c-3.151-0.369-3.772,0.58-3.918,2.532c-0.101,2.58-0.201,5.159-0.301,7.739c0.056,2.348,1.417,3.697,3.383,4.009
		c18.832,2.055,37.663,4.11,56.495,6.165c5.965,0.551,8.449,3.685,8.561,6.872c0.01,3.896,0.021,7.792,0.03,11.688
		c-0.056,2.934-2.695,6.5-6.495,7.061L97.52,73.787c-4.193,0.705-8.473,0.75-13.096,0.049l-59.118-9.807
		c-0.904-0.163-0.546-3.785,0.458-3.596c18.867,3.067,37.554,6.105,56.42,9.172c3.199,0.489,6.073,1.082,8.759,1.116
		c2.95,0.039,5.689-0.524,8.797-0.962l63.302-9.287c2.237-0.282,4.246-1.852,4.272-4.198l-0.091-10.369
		c-0.221-1.989-2.341-3.134-4.777-3.436l-59.35-6.322c-7.958-0.825-9.484-3.812-9.48-8.644l0.279-11.989
		c0.149-2.843,3.673-4.314,7.25-3.625L175.454,22.545z"/>
</g>
</svg>
